<mxfile host="app.diagrams.net" modified="2021-08-26T13:46:27.915Z" agent="5.0 (Windows NT 10.0; Win64; x64) AppleWebKit/537.36 (KHTML, like Gecko) Chrome/92.0.4515.159 Safari/537.36" etag="MYWPeHR7t3bAG5n0Rd1O" version="14.9.9" type="github">
  <diagram id="ZUq2UVD7ssjfh1FZO-Xf" name="Pages">
    <mxGraphModel dx="1221" dy="692" grid="1" gridSize="10" guides="1" tooltips="1" connect="1" arrows="1" fold="1" page="1" pageScale="1" pageWidth="850" pageHeight="1100" math="0" shadow="0">
      <root>
        <mxCell id="0" />
        <mxCell id="1" parent="0" />
        <mxCell id="xiF4PmxIxXKqmX61GVZb-37" style="edgeStyle=orthogonalEdgeStyle;rounded=0;orthogonalLoop=1;jettySize=auto;html=1;entryX=0;entryY=0.5;entryDx=0;entryDy=0;" edge="1" parent="1" source="xiF4PmxIxXKqmX61GVZb-1" target="xiF4PmxIxXKqmX61GVZb-31">
          <mxGeometry relative="1" as="geometry" />
        </mxCell>
        <mxCell id="xiF4PmxIxXKqmX61GVZb-1" value="" style="rounded=0;whiteSpace=wrap;html=1;" vertex="1" parent="1">
          <mxGeometry x="80" y="200" width="190" height="60" as="geometry" />
        </mxCell>
        <mxCell id="xiF4PmxIxXKqmX61GVZb-2" value="&lt;span style=&quot;font-size: 20px&quot;&gt;Landing&lt;/span&gt;" style="text;html=1;strokeColor=none;fillColor=none;align=center;verticalAlign=middle;whiteSpace=wrap;rounded=0;" vertex="1" parent="1">
          <mxGeometry x="100" y="220" width="150" height="20" as="geometry" />
        </mxCell>
        <mxCell id="xiF4PmxIxXKqmX61GVZb-30" style="edgeStyle=orthogonalEdgeStyle;rounded=0;orthogonalLoop=1;jettySize=auto;html=1;entryX=0.5;entryY=0;entryDx=0;entryDy=0;" edge="1" parent="1" source="xiF4PmxIxXKqmX61GVZb-12" target="xiF4PmxIxXKqmX61GVZb-27">
          <mxGeometry relative="1" as="geometry" />
        </mxCell>
        <mxCell id="xiF4PmxIxXKqmX61GVZb-12" value="" style="rounded=0;whiteSpace=wrap;html=1;" vertex="1" parent="1">
          <mxGeometry x="280" y="310" width="190" height="60" as="geometry" />
        </mxCell>
        <mxCell id="xiF4PmxIxXKqmX61GVZb-13" value="&lt;span style=&quot;font-size: 20px&quot;&gt;Sign Up&lt;/span&gt;" style="text;html=1;strokeColor=none;fillColor=none;align=center;verticalAlign=middle;whiteSpace=wrap;rounded=0;" vertex="1" parent="1">
          <mxGeometry x="300" y="330" width="150" height="20" as="geometry" />
        </mxCell>
        <mxCell id="xiF4PmxIxXKqmX61GVZb-25" style="edgeStyle=orthogonalEdgeStyle;rounded=0;orthogonalLoop=1;jettySize=auto;html=1;entryX=0;entryY=0.5;entryDx=0;entryDy=0;" edge="1" parent="1" source="xiF4PmxIxXKqmX61GVZb-14" target="xiF4PmxIxXKqmX61GVZb-23">
          <mxGeometry relative="1" as="geometry" />
        </mxCell>
        <mxCell id="xiF4PmxIxXKqmX61GVZb-14" value="" style="rounded=0;whiteSpace=wrap;html=1;" vertex="1" parent="1">
          <mxGeometry x="280" y="90" width="190" height="60" as="geometry" />
        </mxCell>
        <mxCell id="xiF4PmxIxXKqmX61GVZb-15" value="&lt;span style=&quot;font-size: 20px&quot;&gt;Sign In&lt;/span&gt;" style="text;html=1;strokeColor=none;fillColor=none;align=center;verticalAlign=middle;whiteSpace=wrap;rounded=0;" vertex="1" parent="1">
          <mxGeometry x="300" y="110" width="150" height="20" as="geometry" />
        </mxCell>
        <mxCell id="xiF4PmxIxXKqmX61GVZb-29" style="edgeStyle=orthogonalEdgeStyle;rounded=0;orthogonalLoop=1;jettySize=auto;html=1;entryX=1;entryY=0.5;entryDx=0;entryDy=0;" edge="1" parent="1" source="xiF4PmxIxXKqmX61GVZb-23" target="xiF4PmxIxXKqmX61GVZb-27">
          <mxGeometry relative="1" as="geometry" />
        </mxCell>
        <mxCell id="xiF4PmxIxXKqmX61GVZb-23" value="" style="rounded=0;whiteSpace=wrap;html=1;" vertex="1" parent="1">
          <mxGeometry x="520" y="90" width="190" height="60" as="geometry" />
        </mxCell>
        <mxCell id="xiF4PmxIxXKqmX61GVZb-24" value="&lt;span style=&quot;font-size: 20px&quot;&gt;2-W Auth&lt;/span&gt;" style="text;html=1;strokeColor=none;fillColor=none;align=center;verticalAlign=middle;whiteSpace=wrap;rounded=0;" vertex="1" parent="1">
          <mxGeometry x="540" y="110" width="150" height="20" as="geometry" />
        </mxCell>
        <mxCell id="xiF4PmxIxXKqmX61GVZb-52" style="edgeStyle=orthogonalEdgeStyle;rounded=0;orthogonalLoop=1;jettySize=auto;html=1;" edge="1" parent="1" source="xiF4PmxIxXKqmX61GVZb-27" target="xiF4PmxIxXKqmX61GVZb-49">
          <mxGeometry relative="1" as="geometry">
            <Array as="points">
              <mxPoint x="665" y="530" />
            </Array>
          </mxGeometry>
        </mxCell>
        <mxCell id="xiF4PmxIxXKqmX61GVZb-53" style="edgeStyle=orthogonalEdgeStyle;rounded=0;orthogonalLoop=1;jettySize=auto;html=1;" edge="1" parent="1" source="xiF4PmxIxXKqmX61GVZb-27" target="xiF4PmxIxXKqmX61GVZb-45">
          <mxGeometry relative="1" as="geometry" />
        </mxCell>
        <mxCell id="xiF4PmxIxXKqmX61GVZb-54" style="edgeStyle=orthogonalEdgeStyle;rounded=0;orthogonalLoop=1;jettySize=auto;html=1;entryX=0.582;entryY=0.022;entryDx=0;entryDy=0;entryPerimeter=0;" edge="1" parent="1" source="xiF4PmxIxXKqmX61GVZb-27" target="xiF4PmxIxXKqmX61GVZb-47">
          <mxGeometry relative="1" as="geometry" />
        </mxCell>
        <mxCell id="xiF4PmxIxXKqmX61GVZb-27" value="" style="rounded=0;whiteSpace=wrap;html=1;" vertex="1" parent="1">
          <mxGeometry x="370" y="490" width="190" height="60" as="geometry" />
        </mxCell>
        <mxCell id="xiF4PmxIxXKqmX61GVZb-28" value="&lt;span style=&quot;font-size: 20px&quot;&gt;Home&lt;/span&gt;" style="text;html=1;strokeColor=none;fillColor=none;align=center;verticalAlign=middle;whiteSpace=wrap;rounded=0;" vertex="1" parent="1">
          <mxGeometry x="390" y="510" width="150" height="20" as="geometry" />
        </mxCell>
        <mxCell id="xiF4PmxIxXKqmX61GVZb-35" style="edgeStyle=orthogonalEdgeStyle;rounded=0;orthogonalLoop=1;jettySize=auto;html=1;entryX=0.5;entryY=0;entryDx=0;entryDy=0;" edge="1" parent="1" source="xiF4PmxIxXKqmX61GVZb-31" target="xiF4PmxIxXKqmX61GVZb-12">
          <mxGeometry relative="1" as="geometry" />
        </mxCell>
        <mxCell id="xiF4PmxIxXKqmX61GVZb-36" style="edgeStyle=orthogonalEdgeStyle;rounded=0;orthogonalLoop=1;jettySize=auto;html=1;entryX=0.5;entryY=1;entryDx=0;entryDy=0;" edge="1" parent="1" source="xiF4PmxIxXKqmX61GVZb-31" target="xiF4PmxIxXKqmX61GVZb-14">
          <mxGeometry relative="1" as="geometry" />
        </mxCell>
        <mxCell id="xiF4PmxIxXKqmX61GVZb-31" value="" style="rhombus;whiteSpace=wrap;html=1;" vertex="1" parent="1">
          <mxGeometry x="330" y="190" width="80" height="80" as="geometry" />
        </mxCell>
        <mxCell id="xiF4PmxIxXKqmX61GVZb-45" value="" style="rounded=0;whiteSpace=wrap;html=1;" vertex="1" parent="1">
          <mxGeometry x="120" y="590" width="190" height="60" as="geometry" />
        </mxCell>
        <mxCell id="xiF4PmxIxXKqmX61GVZb-46" value="&lt;span style=&quot;font-size: 20px&quot;&gt;Personal Info&lt;/span&gt;" style="text;html=1;strokeColor=none;fillColor=none;align=center;verticalAlign=middle;whiteSpace=wrap;rounded=0;" vertex="1" parent="1">
          <mxGeometry x="140" y="610" width="150" height="20" as="geometry" />
        </mxCell>
        <mxCell id="xiF4PmxIxXKqmX61GVZb-47" value="" style="rounded=0;whiteSpace=wrap;html=1;" vertex="1" parent="1">
          <mxGeometry x="340" y="590" width="190" height="60" as="geometry" />
        </mxCell>
        <mxCell id="xiF4PmxIxXKqmX61GVZb-48" value="&lt;span style=&quot;font-size: 20px&quot;&gt;Message&lt;/span&gt;" style="text;html=1;strokeColor=none;fillColor=none;align=center;verticalAlign=middle;whiteSpace=wrap;rounded=0;" vertex="1" parent="1">
          <mxGeometry x="360" y="610" width="150" height="20" as="geometry" />
        </mxCell>
        <mxCell id="xiF4PmxIxXKqmX61GVZb-49" value="" style="rounded=0;whiteSpace=wrap;html=1;" vertex="1" parent="1">
          <mxGeometry x="570" y="590" width="190" height="60" as="geometry" />
        </mxCell>
        <mxCell id="xiF4PmxIxXKqmX61GVZb-50" value="&lt;span style=&quot;font-size: 20px&quot;&gt;Requests&lt;/span&gt;" style="text;html=1;strokeColor=none;fillColor=none;align=center;verticalAlign=middle;whiteSpace=wrap;rounded=0;" vertex="1" parent="1">
          <mxGeometry x="590" y="610" width="150" height="20" as="geometry" />
        </mxCell>
        <mxCell id="xiF4PmxIxXKqmX61GVZb-55" value="&lt;b&gt;Already?&lt;/b&gt;" style="text;html=1;strokeColor=none;fillColor=none;align=center;verticalAlign=middle;whiteSpace=wrap;rounded=0;" vertex="1" parent="1">
          <mxGeometry x="350" y="220" width="40" height="20" as="geometry" />
        </mxCell>
        <mxCell id="xiF4PmxIxXKqmX61GVZb-56" value="Yes" style="text;html=1;strokeColor=none;fillColor=none;align=center;verticalAlign=middle;whiteSpace=wrap;rounded=0;fontStyle=1" vertex="1" parent="1">
          <mxGeometry x="390" y="170" width="40" height="20" as="geometry" />
        </mxCell>
        <mxCell id="xiF4PmxIxXKqmX61GVZb-57" value="No" style="text;html=1;strokeColor=none;fillColor=none;align=center;verticalAlign=middle;whiteSpace=wrap;rounded=0;fontStyle=1" vertex="1" parent="1">
          <mxGeometry x="390" y="270" width="40" height="20" as="geometry" />
        </mxCell>
      </root>
    </mxGraphModel>
  </diagram>
</mxfile>
